<svg width="13" height="16" viewBox="0 0 13 16" fill="none" xmlns="http://www.w3.org/2000/svg">
<path d="M6.49998 0.395752L12.9773 4.14575V11.6458L6.49998 15.3958L0.0227051 11.6458V4.14575L6.49998 0.395752ZM6.49998 9.94121C7.04247 9.94121 7.56274 9.7257 7.94633 9.34211C8.32993 8.95851 8.54543 8.43824 8.54543 7.89575C8.54543 7.35326 8.32993 6.83299 7.94633 6.4494C7.56274 6.0658 7.04247 5.8503 6.49998 5.8503C5.95749 5.8503 5.43722 6.0658 5.05362 6.4494C4.67003 6.83299 4.45452 7.35326 4.45452 7.89575C4.45452 8.43824 4.67003 8.95851 5.05362 9.34211C5.43722 9.7257 5.95749 9.94121 6.49998 9.94121Z" fill="#999999"/>
</svg>
