<svg width="13" height="15" viewBox="0 0 13 15" fill="none" xmlns="http://www.w3.org/2000/svg">
<path d="M6.50022 0L12.9775 3.75V11.25L6.50022 15L0.0229492 11.25V3.75L6.50022 0ZM6.50022 9.54545C7.04271 9.54545 7.56298 9.32995 7.94658 8.94635C8.33017 8.56276 8.54568 8.04249 8.54568 7.5C8.54568 6.95751 8.33017 6.43724 7.94658 6.05365C7.56298 5.67005 7.04271 5.45455 6.50022 5.45455C5.95773 5.45455 5.43746 5.67005 5.05387 6.05365C4.67027 6.43724 4.45477 6.95751 4.45477 7.5C4.45477 8.04249 4.67027 8.56276 5.05387 8.94635C5.43746 9.32995 5.95773 9.54545 6.50022 9.54545Z" fill="#2AE881"/>
</svg>
