<svg width="13" height="14" viewBox="0 0 13 14" fill="none" xmlns="http://www.w3.org/2000/svg">
<path d="M1.89583 0.395752C1.3 0.395752 0.8125 0.883252 0.8125 1.47909V12.3124C0.8125 12.9083 1.3 13.3958 1.89583 13.3958H11.1042C11.7 13.3958 12.1875 12.9083 12.1875 12.3124V1.47909C12.1875 0.883252 11.7 0.395752 11.1042 0.395752H1.89583ZM4.0625 11.7708H2.4375V10.1458H4.0625V11.7708ZM4.0625 9.60409H2.4375V7.97909H4.0625V9.60409ZM4.0625 7.43742H2.4375V5.81242H4.0625V7.43742ZM6.22917 11.7708H4.60417V10.1458H6.22917V11.7708ZM6.22917 9.60409H4.60417V7.97909H6.22917V9.60409ZM6.22917 7.43742H4.60417V5.81242H6.22917V7.43742ZM8.39583 11.7708H6.77083V10.1458H8.39583V11.7708ZM8.39583 9.60409H6.77083V7.97909H8.39583V9.60409ZM8.39583 7.43742H6.77083V5.81242H8.39583V7.43742ZM10.5625 11.7708H8.9375V7.97909H10.5625V11.7708ZM10.5625 7.43742H8.9375V5.81242H10.5625V7.43742ZM10.5625 4.72909H2.4375V2.02075H10.5625V4.72909Z" fill="#999999"/>
</svg>
