<svg width="13" height="13" viewBox="0 0 13 13" fill="none" xmlns="http://www.w3.org/2000/svg">
<path d="M1.89583 0C1.3 0 0.8125 0.4875 0.8125 1.08333V11.9167C0.8125 12.5125 1.3 13 1.89583 13H11.1042C11.7 13 12.1875 12.5125 12.1875 11.9167V1.08333C12.1875 0.4875 11.7 0 11.1042 0H1.89583ZM4.0625 11.375H2.4375V9.75H4.0625V11.375ZM4.0625 9.20833H2.4375V7.58333H4.0625V9.20833ZM4.0625 7.04167H2.4375V5.41667H4.0625V7.04167ZM6.22917 11.375H4.60417V9.75H6.22917V11.375ZM6.22917 9.20833H4.60417V7.58333H6.22917V9.20833ZM6.22917 7.04167H4.60417V5.41667H6.22917V7.04167ZM8.39583 11.375H6.77083V9.75H8.39583V11.375ZM8.39583 9.20833H6.77083V7.58333H8.39583V9.20833ZM8.39583 7.04167H6.77083V5.41667H8.39583V7.04167ZM10.5625 11.375H8.9375V7.58333H10.5625V11.375ZM10.5625 7.04167H8.9375V5.41667H10.5625V7.04167ZM10.5625 4.33333H2.4375V1.625H10.5625V4.33333Z" fill="#2AE881"/>
</svg>
